<?xml version="1.0" encoding="UTF-8"?>
<svg id="Layer_1" data-name="Layer 1" xmlns="http://www.w3.org/2000/svg" viewBox="0 0 160 160">
  <defs>
    <style>
      .cls-1 {
        fill: #d4af34;
      }
    </style>
  </defs>
  <path class="cls-1" d="M21.04,88.94c.15.19.3.38.53.38s.3-.15.26-.57l-2.53-22.25h3.09v26.4h-2.26l-15.84-21.99c-.19-.26-.38-.6-.72-.6s-.38.34-.34.72l2.49,21.88h-3.09v-26.4h2.26l16.14,22.44Z"/>
  <path class="cls-1" d="M50.54,92.9h-3.32l-3.51-7.92c-.08-.19-.15-.3-.26-.3-.41,0-.83,1.62-2.83,1.62-1.43,0-4-.45-5.81-.45-2,0-4.34.34-5.24,2.98l-1.4,4.07h-3.09l11.84-26.4h1.92l11.69,26.4ZM30.81,86.22c.75,0,1.17-2.94,3.85-2.94,2.53,0,5.62,1.73,7.05,1.73,1.02,0,1.51-1.13,1.09-2.07l-5.96-13.39c-.08-.15-.15-.23-.3-.23s-.26.11-.3.26l-5.58,16.14c-.08.26-.08.49.15.49Z"/>
  <path class="cls-1" d="M53.26,66.5h11.13c6.22,0,10.22,2.87,10.22,7.28,0,3.96-3.21,6.68-8.37,7.2,3.17.87,5.09,2.75,6.3,5.36l3.06,6.56h-3.39l-3.06-6.6c-1.21-2.56-2.94-5.24-7.17-5.24h-4.71c-.53,0-.91.38-.91.91v10.94h-3.09v-26.4ZM57.25,80.45h7.13c4.26,0,7.02-2.64,7.02-6.68s-2.75-6.68-7.02-6.68h-7.13c-.53,0-.91.38-.91.91v11.54c0,.53.38.91.91.91h0Z"/>
  <path class="cls-1" d="M81.85,66.5v18.03c0,5.54,2.64,8.37,7.92,8.37s7.92-2.83,7.92-8.37v-18.03h3.09v17.35c0,5.85-4.34,9.66-11.01,9.66s-11.01-3.81-11.01-9.66v-17.35h3.09Z"/>
  <path class="cls-1" d="M117.8,89.35c.08.19.19.34.34.34s.23-.15.3-.34l7.51-22.86h2.15l1.89,26.4h-3.09l-1.47-20.86c-.04-.57-.08-.72-.23-.72-.19,0-.26.3-.38.64l-6.9,20.93h-2.11l-8-21.54c-.15-.38-.26-.57-.49-.57s-.3.3-.3.68l.57,21.42h-3.09l2.34-26.4h2.45l8.52,22.86Z"/>
  <path class="cls-1" d="M157.36,92.9h-3.32l-3.51-7.92c-.08-.19-.15-.3-.26-.3-.41,0-.83,1.62-2.83,1.62-1.43,0-4-.45-5.81-.45-2,0-4.34.34-5.24,2.98l-1.4,4.07h-3.09l11.84-26.4h1.92l11.69,26.4ZM137.64,86.22c.75,0,1.17-2.94,3.85-2.94,2.53,0,5.62,1.73,7.05,1.73,1.02,0,1.51-1.13,1.09-2.07l-5.96-13.39c-.08-.15-.15-.23-.3-.23s-.26.11-.3.26l-5.58,16.14c-.08.26-.08.49.15.49Z"/>
</svg>