<?xml version="1.0" encoding="UTF-8"?>
<svg id="Layer_1" data-name="Layer 1" xmlns="http://www.w3.org/2000/svg" xmlns:xlink="http://www.w3.org/1999/xlink" viewBox="0 0 160 160">
  <defs>
    <style>
      .cls-1 {
        fill: #d4af34;
      }

      .cls-2 {
        fill: url(#radial-gradient);
      }

      .cls-3 {
        fill: url(#radial-gradient-3);
      }

      .cls-4 {
        fill: url(#radial-gradient-2);
      }
    </style>
    <radialGradient id="radial-gradient" cx="377.93" cy="-127.02" fx="377.93" fy="-127.02" r="63.89" gradientTransform="translate(-66.16 111.85) scale(.38)" gradientUnits="userSpaceOnUse">
      <stop offset="0" stop-color="#fff"/>
      <stop offset="1" stop-color="#d4af34"/>
    </radialGradient>
    <radialGradient id="radial-gradient-2" cx="506.74" cy="-140.24" fx="506.74" fy="-140.24" r="55.49" gradientTransform="translate(-66.16 111.85) scale(.38)" gradientUnits="userSpaceOnUse">
      <stop offset=".11" stop-color="#fff"/>
      <stop offset=".45" stop-color="#d4af34"/>
    </radialGradient>
    <radialGradient id="radial-gradient-3" cx="244.52" cy="-139.24" fx="244.52" fy="-139.24" r="55.49" xlink:href="#radial-gradient-2"/>
  </defs>
  <path class="cls-2" d="M96.97,82.51c.32.4.64.79,1.11.79s.64-.32.56-1.19l-5.32-46.85h6.51v55.58h-4.76l-33.35-46.29c-.4-.56-.79-1.27-1.51-1.27s-.79.71-.71,1.51l5.24,46.05h-6.51v-55.58h4.76l33.98,47.24Z"/>
  <path class="cls-4" d="M154.4,62.6c-.17-.25-.34-.51-.51-.78-.52,2.39-2.33,4.29-5.02,4.29-5.98,0-18.89-7.24-29.44-7.24-11.18,0-12.91,12.28-16.06,12.28-.04,0-.07,0-.1,0,.12.21.23.44.32.69.07.2.12.42.16.64,4.62-3.64,10.78-4.27,16.32-4.27,7.56,0,18.26,1.89,24.25,1.89,6.97,0,9.32-4.72,10.92-6.27-.26-.41-.54-.82-.82-1.23Z"/>
  <path class="cls-1" d="M21.16,120.17c.15.19.3.38.53.38s.3-.15.26-.57l-2.53-22.25h3.09v26.4h-2.26l-15.84-21.99c-.19-.26-.38-.6-.72-.6s-.38.34-.34.72l2.49,21.88h-3.09v-26.4h2.26l16.14,22.44Z"/>
  <path class="cls-1" d="M50.66,124.13h-3.32l-3.51-7.92c-.08-.19-.15-.3-.26-.3-.41,0-.83,1.62-2.83,1.62-1.43,0-4-.45-5.81-.45-2,0-4.34.34-5.24,2.98l-1.4,4.07h-3.09l11.84-26.4h1.92l11.69,26.4ZM30.93,117.46c.75,0,1.17-2.94,3.85-2.94,2.53,0,5.62,1.73,7.05,1.73,1.02,0,1.51-1.13,1.09-2.07l-5.96-13.39c-.08-.15-.15-.23-.3-.23s-.26.11-.3.26l-5.58,16.14c-.08.26-.08.49.15.49Z"/>
  <path class="cls-1" d="M53.37,97.73h11.13c6.22,0,10.22,2.87,10.22,7.28,0,3.96-3.21,6.68-8.37,7.2,3.17.87,5.09,2.75,6.3,5.36l3.06,6.56h-3.39l-3.06-6.6c-1.21-2.56-2.94-5.24-7.17-5.24h-4.71c-.53,0-.91.38-.91.91v10.94h-3.09v-26.4ZM57.37,111.69h7.13c4.26,0,7.02-2.64,7.02-6.68s-2.75-6.68-7.02-6.68h-7.13c-.53,0-.91.38-.91.91v11.54c0,.53.38.91.91.91h0Z"/>
  <path class="cls-1" d="M81.97,97.73v18.03c0,5.54,2.64,8.37,7.92,8.37s7.92-2.83,7.92-8.37v-18.03h3.09v17.35c0,5.85-4.34,9.66-11.01,9.66s-11.01-3.81-11.01-9.66v-17.35h3.09Z"/>
  <path class="cls-1" d="M117.91,120.59c.08.19.19.34.34.34s.23-.15.3-.34l7.51-22.86h2.15l1.89,26.4h-3.09l-1.47-20.86c-.04-.57-.08-.72-.23-.72-.19,0-.26.3-.38.64l-6.9,20.93h-2.11l-8-21.54c-.15-.38-.26-.57-.49-.57s-.3.3-.3.68l.57,21.42h-3.09l2.34-26.4h2.45l8.52,22.86Z"/>
  <path class="cls-1" d="M157.48,124.13h-3.32l-3.51-7.92c-.08-.19-.15-.3-.26-.3-.41,0-.83,1.62-2.83,1.62-1.43,0-4-.45-5.81-.45-2,0-4.34.34-5.24,2.98l-1.4,4.07h-3.09l11.84-26.4h1.92l11.69,26.4ZM137.75,117.46c.75,0,1.17-2.94,3.85-2.94,2.53,0,5.62,1.73,7.05,1.73,1.02,0,1.51-1.13,1.09-2.07l-5.96-13.39c-.08-.15-.15-.23-.3-.23s-.26.11-.3.26l-5.58,16.14c-.08.26-.08.49.15.49Z"/>
  <path class="cls-3" d="M53.66,62.98c-.17-.25-.34-.51-.51-.78-.52,2.39-2.33,4.29-5.02,4.29-5.98,0-18.89-7.24-29.44-7.24-11.18,0-12.91,12.28-16.06,12.28-.04,0-.07,0-.1,0,.12.21.23.44.32.69.07.2.12.42.16.64,4.62-3.64,10.78-4.27,16.32-4.27,7.56,0,18.26,1.89,24.25,1.89,6.97,0,9.32-4.72,10.92-6.27-.26-.41-.54-.82-.82-1.23Z"/>
</svg>