<?xml version="1.0" encoding="UTF-8"?>
<svg id="Layer_1" data-name="Layer 1" xmlns="http://www.w3.org/2000/svg" xmlns:xlink="http://www.w3.org/1999/xlink" viewBox="0 0 160 160">
  <defs>
    <style>
      .cls-1 {
        fill: url(#radial-gradient);
      }

      .cls-2 {
        fill: url(#radial-gradient-3);
      }

      .cls-3 {
        fill: url(#radial-gradient-2);
      }
    </style>
    <radialGradient id="radial-gradient" cx="-146.57" cy="-28.79" fx="-146.57" fy="-28.79" r="63.89" gradientTransform="translate(136.6 89.91) scale(.39)" gradientUnits="userSpaceOnUse">
      <stop offset="0" stop-color="#fff"/>
      <stop offset="1" stop-color="#d4af34"/>
    </radialGradient>
    <radialGradient id="radial-gradient-2" cx="-17.76" cy="-42.02" fx="-17.76" fy="-42.02" r="55.49" gradientTransform="translate(136.6 89.91) scale(.39)" gradientUnits="userSpaceOnUse">
      <stop offset=".11" stop-color="#fff"/>
      <stop offset=".45" stop-color="#d4af34"/>
    </radialGradient>
    <radialGradient id="radial-gradient-3" cx="-279.98" cy="-41.02" fx="-279.98" fy="-41.02" r="55.49" xlink:href="#radial-gradient-2"/>
  </defs>
  <path class="cls-1" d="M98.15,98.33c.32.4.64.8,1.11.8s.64-.32.56-1.19l-5.33-46.96h6.53v55.72h-4.78l-33.43-46.4c-.4-.56-.8-1.27-1.51-1.27s-.8.72-.72,1.51l5.25,46.16h-6.53v-55.72h4.78l34.07,47.36Z"/>
  <path class="cls-3" d="M155.72,78.37c-.17-.25-.34-.51-.51-.78-.52,2.4-2.33,4.31-5.04,4.31-6,0-18.94-7.26-29.51-7.26-11.21,0-12.94,12.31-16.1,12.31-.04,0-.07,0-.11,0,.12.21.23.44.32.69.07.2.12.42.16.64,4.63-3.65,10.81-4.28,16.36-4.28,7.58,0,18.31,1.89,24.31,1.89,6.98,0,9.35-4.73,10.95-6.29-.26-.41-.54-.82-.82-1.23Z"/>
  <path class="cls-2" d="M54.73,78.75c-.17-.25-.34-.51-.51-.78-.52,2.4-2.33,4.31-5.04,4.31-6,0-18.94-7.26-29.51-7.26-11.21,0-12.94,12.31-16.1,12.31-.04,0-.07,0-.11,0,.12.21.23.44.32.69.07.2.12.42.16.64,4.63-3.65,10.81-4.28,16.36-4.28,7.58,0,18.31,1.89,24.31,1.89,6.98,0,9.35-4.73,10.95-6.29-.26-.41-.54-.82-.82-1.23Z"/>
</svg>